<mxfile host="app.diagrams.net">
  <diagram name="Databricks環境" id="databricks">
    <mxGraphModel dx="1422" dy="794" grid="1" gridSize="10" guides="1" tooltips="1" connect="1" arrows="1" fold="1" page="1" pageScale="1" pageWidth="1400" pageHeight="900" background="#ffffff">
      <root>
        <mxCell id="0"/>
        <mxCell id="1" parent="0"/>

        <!-- Title -->
        <mxCell id="title" value="Databricks環境での開発フロー" style="text;html=1;strokeColor=none;fillColor=none;align=center;verticalAlign=middle;whiteSpace=wrap;rounded=0;fontSize=28;fontStyle=1;fontColor=#FF3621;" vertex="1" parent="1">
          <mxGeometry x="350" y="40" width="700" height="50" as="geometry"/>
        </mxCell>

        <!-- Developer Icon -->
        <mxCell id="developer" value="" style="sketch=0;outlineConnect=0;fontColor=#232F3E;gradientColor=none;fillColor=#232F3D;strokeColor=none;dashed=0;verticalLabelPosition=bottom;verticalAlign=top;align=center;html=1;fontSize=12;fontStyle=0;aspect=fixed;pointerEvents=1;shape=mxgraph.aws4.user;" vertex="1" parent="1">
          <mxGeometry x="80" y="390" width="78" height="78" as="geometry"/>
        </mxCell>
        <mxCell id="developer-label" value="開発者&lt;br&gt;インターン生" style="text;html=1;strokeColor=none;fillColor=none;align=center;verticalAlign=top;whiteSpace=wrap;rounded=0;fontSize=14;fontStyle=1;" vertex="1" parent="1">
          <mxGeometry x="59" y="470" width="120" height="40" as="geometry"/>
        </mxCell>

        <!-- Databricks Workspace Background -->
        <mxCell id="workspace-bg" value="" style="rounded=1;whiteSpace=wrap;html=1;fillColor=#ffe6e6;strokeColor=#FF3621;strokeWidth=3;opacity=40;" vertex="1" parent="1">
          <mxGeometry x="320" y="150" width="1000" height="600" as="geometry"/>
        </mxCell>

        <mxCell id="workspace-label" value="Databricks Workspace（インフラ知識不要）" style="text;html=1;strokeColor=none;fillColor=none;align=left;verticalAlign=top;whiteSpace=wrap;rounded=0;fontSize=18;fontStyle=1;fontColor=#FF3621;" vertex="1" parent="1">
          <mxGeometry x="340" y="170" width="400" height="30" as="geometry"/>
        </mxCell>

        <!-- Notebook -->
        <mxCell id="notebook-box" value="" style="rounded=1;whiteSpace=wrap;html=1;fillColor=#dae8fc;strokeColor=#6c8ebf;strokeWidth=3;" vertex="1" parent="1">
          <mxGeometry x="450" y="280" width="260" height="200" as="geometry"/>
        </mxCell>
        <mxCell id="notebook-title" value="Notebook (Python/SQL)" style="text;html=1;strokeColor=none;fillColor=none;align=center;verticalAlign=top;whiteSpace=wrap;rounded=0;fontSize=16;fontStyle=1;" vertex="1" parent="1">
          <mxGeometry x="450" y="290" width="260" height="30" as="geometry"/>
        </mxCell>

        <!-- Cells in Notebook -->
        <mxCell id="cell1" value="セル1: データ読込" style="rounded=0;whiteSpace=wrap;html=1;fillColor=#d5e8d4;strokeColor=#82b366;fontSize=13;fontStyle=1;" vertex="1" parent="1">
          <mxGeometry x="470" y="330" width="220" height="30" as="geometry"/>
        </mxCell>
        <mxCell id="cell2" value="セル2: 前処理・特徴量作成" style="rounded=0;whiteSpace=wrap;html=1;fillColor=#d5e8d4;strokeColor=#82b366;fontSize=13;fontStyle=1;" vertex="1" parent="1">
          <mxGeometry x="470" y="370" width="220" height="30" as="geometry"/>
        </mxCell>
        <mxCell id="cell3" value="セル3: モデル学習・評価" style="rounded=0;whiteSpace=wrap;html=1;fillColor=#fff2cc;strokeColor=#d6b656;fontSize=13;fontStyle=1;" vertex="1" parent="1">
          <mxGeometry x="470" y="410" width="220" height="30" as="geometry"/>
        </mxCell>
        <mxCell id="cell4" value="セル4: 結果可視化" style="rounded=0;whiteSpace=wrap;html=1;fillColor=#f8cecc;strokeColor=#b85450;fontSize=13;fontStyle=1;" vertex="1" parent="1">
          <mxGeometry x="470" y="450" width="220" height="25" as="geometry"/>
        </mxCell>

        <!-- Cluster -->
        <mxCell id="cluster" value="" style="ellipse;whiteSpace=wrap;html=1;fillColor=#ffe6cc;strokeColor=#d79b00;strokeWidth=3;" vertex="1" parent="1">
          <mxGeometry x="490" y="560" width="180" height="100" as="geometry"/>
        </mxCell>
        <mxCell id="cluster-label" value="Cluster&lt;br&gt;(自動管理)" style="text;html=1;strokeColor=none;fillColor=none;align=center;verticalAlign=middle;whiteSpace=wrap;rounded=0;fontSize=15;fontStyle=1;" vertex="1" parent="1">
          <mxGeometry x="520" y="595" width="120" height="30" as="geometry"/>
        </mxCell>

        <!-- Data Lake (S3) -->
        <mxCell id="s3" value="" style="sketch=0;points=[[0,0,0],[0.25,0,0],[0.5,0,0],[0.75,0,0],[1,0,0],[0,1,0],[0.25,1,0],[0.5,1,0],[0.75,1,0],[1,1,0],[0,0.25,0],[0,0.5,0],[0,0.75,0],[1,0.25,0],[1,0.5,0],[1,0.75,0]];outlineConnect=0;fontColor=#232F3E;gradientColor=#60A337;gradientDirection=north;fillColor=#277116;strokeColor=#ffffff;dashed=0;verticalLabelPosition=bottom;verticalAlign=top;align=center;html=1;fontSize=12;fontStyle=0;aspect=fixed;shape=mxgraph.aws4.resourceIcon;resIcon=mxgraph.aws4.s3;" vertex="1" parent="1">
          <mxGeometry x="920" y="260" width="78" height="78" as="geometry"/>
        </mxCell>
        <mxCell id="s3-label" value="データレイク&lt;br&gt;S3/Delta Lake" style="text;html=1;strokeColor=none;fillColor=none;align=center;verticalAlign=top;whiteSpace=wrap;rounded=0;fontSize=14;fontStyle=1;" vertex="1" parent="1">
          <mxGeometry x="899" y="340" width="120" height="40" as="geometry"/>
        </mxCell>

        <!-- Job -->
        <mxCell id="job-box" value="" style="rounded=1;whiteSpace=wrap;html=1;fillColor=#f8cecc;strokeColor=#b85450;strokeWidth=3;" vertex="1" parent="1">
          <mxGeometry x="920" y="480" width="180" height="100" as="geometry"/>
        </mxCell>
        <mxCell id="job-label" value="Job&lt;br&gt;(本番運用)" style="text;html=1;strokeColor=none;fillColor=none;align=center;verticalAlign=middle;whiteSpace=wrap;rounded=0;fontSize=15;fontStyle=1;" vertex="1" parent="1">
          <mxGeometry x="950" y="515" width="120" height="30" as="geometry"/>
        </mxCell>

        <!-- Dashboard -->
        <mxCell id="dashboard" value="" style="shape=image;html=1;verticalAlign=top;verticalLabelPosition=bottom;imageAspect=0;aspect=fixed;image=https://cdn-icons-png.flaticon.com/512/1265/1265907.png" vertex="1" parent="1">
          <mxGeometry x="540" y="150" width="80" height="80" as="geometry"/>
        </mxCell>
        <mxCell id="dashboard-label" value="Dashboard&lt;br&gt;(可視化)" style="text;html=1;strokeColor=none;fillColor=none;align=center;verticalAlign=top;whiteSpace=wrap;rounded=0;fontSize=14;fontStyle=1;" vertex="1" parent="1">
          <mxGeometry x="520" y="230" width="120" height="30" as="geometry"/>
        </mxCell>

        <!-- Arrows -->
        <mxCell id="arrow1" value="" style="edgeStyle=orthogonalEdgeStyle;rounded=0;orthogonalLoop=1;jettySize=auto;html=1;strokeWidth=4;fontSize=14;fontStyle=1;strokeColor=#00AA00;exitX=1;exitY=0.5;exitDx=0;exitDy=0;exitPerimeter=0;" edge="1" parent="1" source="developer" target="notebook-box">
          <mxGeometry relative="1" as="geometry"/>
        </mxCell>
        <mxCell id="arrow1-label" value="1. ブラウザで開く&lt;br&gt;コード記述" style="edgeLabel;html=1;align=center;verticalAlign=middle;resizable=0;points=[];fontSize=13;fontStyle=1;fontColor=#00AA00;" vertex="1" connectable="0" parent="arrow1">
          <mxGeometry x="-0.1" y="2" relative="1" as="geometry">
            <mxPoint x="20" y="-20" as="offset"/>
          </mxGeometry>
        </mxCell>

        <mxCell id="arrow2" value="" style="edgeStyle=orthogonalEdgeStyle;rounded=0;orthogonalLoop=1;jettySize=auto;html=1;strokeWidth=4;fontSize=14;fontStyle=1;strokeColor=#00AA00;" edge="1" parent="1" source="notebook-box" target="cluster">
          <mxGeometry relative="1" as="geometry"/>
        </mxCell>
        <mxCell id="arrow2-label" value="2. セル実行（即座）" style="edgeLabel;html=1;align=center;verticalAlign=middle;resizable=0;points=[];fontSize=13;fontStyle=1;fontColor=#00AA00;" vertex="1" connectable="0" parent="arrow2">
          <mxGeometry x="-0.1" y="2" relative="1" as="geometry">
            <mxPoint y="-12" as="offset"/>
          </mxGeometry>
        </mxCell>

        <mxCell id="arrow3" value="" style="edgeStyle=orthogonalEdgeStyle;rounded=0;orthogonalLoop=1;jettySize=auto;html=1;strokeWidth=4;fontSize=14;fontStyle=1;strokeColor=#00AA00;exitX=0;exitY=0.5;exitDx=0;exitDy=0;entryX=0;entryY=0.5;entryDx=0;entryDy=0;" edge="1" parent="1" source="cluster" target="notebook-box">
          <mxGeometry relative="1" as="geometry">
            <Array as="points">
              <mxPoint x="400" y="610"/>
              <mxPoint x="400" y="380"/>
            </Array>
          </mxGeometry>
        </mxCell>
        <mxCell id="arrow3-label" value="3. 結果表示（即座）" style="edgeLabel;html=1;align=center;verticalAlign=middle;resizable=0;points=[];fontSize=13;fontStyle=1;fontColor=#00AA00;" vertex="1" connectable="0" parent="arrow3">
          <mxGeometry x="-0.1" y="2" relative="1" as="geometry">
            <mxPoint x="-12" y="-60" as="offset"/>
          </mxGeometry>
        </mxCell>

        <mxCell id="arrow4" value="" style="edgeStyle=orthogonalEdgeStyle;rounded=0;orthogonalLoop=1;jettySize=auto;html=1;strokeWidth=4;fontSize=14;fontStyle=1;strokeColor=#0066CC;dashed=1;dashPattern=8 8;" edge="1" parent="1" source="notebook-box" target="job-box">
          <mxGeometry relative="1" as="geometry"/>
        </mxCell>
        <mxCell id="arrow4-label" value="4. ジョブ化&lt;br&gt;（数クリック）" style="edgeLabel;html=1;align=center;verticalAlign=middle;resizable=0;points=[];fontSize=13;fontStyle=1;fontColor=#0066CC;" vertex="1" connectable="0" parent="arrow4">
          <mxGeometry x="-0.1" y="2" relative="1" as="geometry">
            <mxPoint x="10" y="-25" as="offset"/>
          </mxGeometry>
        </mxCell>

        <mxCell id="arrow5" value="" style="edgeStyle=orthogonalEdgeStyle;rounded=0;orthogonalLoop=1;jettySize=auto;html=1;strokeWidth=3;fontSize=12;strokeColor=#9673a6;" edge="1" parent="1" source="s3" target="notebook-box">
          <mxGeometry relative="1" as="geometry"/>
        </mxCell>
        <mxCell id="arrow5-label" value="データ読込" style="edgeLabel;html=1;align=center;verticalAlign=middle;resizable=0;points=[];fontSize=12;fontColor=#9673a6;" vertex="1" connectable="0" parent="arrow5">
          <mxGeometry x="-0.1" y="2" relative="1" as="geometry">
            <mxPoint y="-10" as="offset"/>
          </mxGeometry>
        </mxCell>

        <mxCell id="arrow6" value="" style="edgeStyle=orthogonalEdgeStyle;rounded=0;orthogonalLoop=1;jettySize=auto;html=1;strokeWidth=3;fontSize=12;strokeColor=#666666;" edge="1" parent="1" source="cell4" target="dashboard">
          <mxGeometry relative="1" as="geometry">
            <mxPoint x="580" y="260" as="targetPoint"/>
          </mxGeometry>
        </mxCell>
        <mxCell id="arrow6-label" value="可視化" style="edgeLabel;html=1;align=center;verticalAlign=middle;resizable=0;points=[];fontSize=12;fontColor=#666666;" vertex="1" connectable="0" parent="arrow6">
          <mxGeometry x="-0.1" y="2" relative="1" as="geometry">
            <mxPoint x="12" as="offset"/>
          </mxGeometry>
        </mxCell>

        <!-- Feature Labels -->
        <mxCell id="feature-box" value="✓ インフラ知識不要&lt;br&gt;✓ セル単位で実行&amp;デバッグ&lt;br&gt;✓ 変数状態を保持&lt;br&gt;✓ 即座に可視化" style="rounded=1;whiteSpace=wrap;html=1;fillColor=#fff2cc;strokeColor=#d6b656;fontSize=15;fontStyle=1;align=left;spacingLeft=20;" vertex="1" parent="1">
          <mxGeometry x="80" y="580" width="220" height="110" as="geometry"/>
        </mxCell>

        <!-- Time Summary Box -->
        <mxCell id="time-box" value="合計所要時間: 1-2分（セル実行は数秒）" style="rounded=1;whiteSpace=wrap;html=1;fillColor=#d5e8d4;strokeColor=#82b366;fontSize=20;fontStyle=1;align=center;" vertex="1" parent="1">
          <mxGeometry x="450" y="780" width="600" height="60" as="geometry"/>
        </mxCell>

      </root>
    </mxGraphModel>
  </diagram>
</mxfile>
